<svg width="105" height="71" viewBox="0 0 105 71" fill="none" xmlns="http://www.w3.org/2000/svg">
<path d="M28.1711 1.71237C27.7425 1.86597 27.4568 2.05248 27.518 2.1622C27.5486 2.22802 27.518 2.23899 27.4364 2.20608C27.2527 2.14025 26.8242 2.68882 26.9058 2.89728C26.9262 2.98505 26.916 3.01797 26.8548 2.98505C26.8038 2.95214 26.7119 3.10574 26.6609 3.33614C26.5078 3.92859 26.5078 49.4271 26.6609 49.855C26.814 50.2938 27.1507 50.6559 27.6201 50.8863C27.9772 51.0618 28.3037 51.0947 30.222 51.0947C32.3036 51.0947 32.4465 51.0838 32.8751 50.8424C33.2118 50.6668 33.3954 50.4694 33.5689 50.1073L33.7934 49.6246L33.8036 32.553C33.8138 23.1725 33.8444 14.7793 33.8852 13.9126C33.9465 12.4205 33.9567 12.3327 34.1811 12.1681C34.4158 12.0036 34.4464 12.0145 35.3342 13.0349C35.8342 13.6054 36.2831 14.0552 36.3342 14.0442C36.3852 14.0333 36.4158 14.0881 36.4056 14.1649C36.3852 14.3734 38.9055 17.3137 39.028 17.226C39.0892 17.193 39.0994 17.215 39.0586 17.2808C38.977 17.4344 40.63 19.3983 40.7626 19.3105C40.8239 19.2776 40.8341 19.2886 40.8034 19.3544C40.732 19.4751 45.936 25.8056 46.1095 25.8056C46.1809 25.8056 46.2931 25.8824 46.3646 25.9702C46.4768 26.1018 46.4768 26.1018 46.3033 25.9702C46.1911 25.8714 46.1299 25.8605 46.1503 25.9263C46.2319 26.1677 50.0481 30.6879 50.1196 30.633C50.1604 30.6001 50.2624 30.6659 50.3339 30.7647C50.4359 30.8963 50.4359 30.9183 50.3543 30.8634C50.2828 30.8195 50.2216 30.8305 50.2216 30.8744C50.2216 31.039 51.3032 32.1251 51.3848 32.0374C51.4257 31.9935 51.4257 32.0374 51.3951 32.1251C51.3542 32.2349 51.5379 32.5091 51.9461 32.9151C52.4563 33.4417 52.6093 33.5405 52.9358 33.5405C53.5073 33.5405 54.0685 33.1235 54.0072 32.7395C53.997 32.6847 54.0379 32.6737 54.0889 32.7066C54.1399 32.7395 54.9664 31.8399 55.9256 30.6989C57.5684 28.735 58.0378 28.1096 57.3949 28.724L57.1092 28.9873L57.3541 28.6911C57.4868 28.5265 57.6296 28.4168 57.6704 28.4387C57.7112 28.4717 58.1194 28.0547 58.5786 27.5171C59.4051 26.5407 59.6602 26.1347 59.1296 26.6394C58.8541 26.8918 58.8541 26.8918 59.1398 26.5517C59.303 26.3542 59.4663 26.2115 59.4969 26.2445C59.5581 26.3103 60.2214 25.641 60.2214 25.4984C60.2214 25.4545 60.1704 25.4435 60.0989 25.4874C60.0275 25.5313 60.0173 25.5203 60.0581 25.4326C60.0989 25.3667 60.1704 25.3338 60.2214 25.3667C60.3336 25.4435 63.7417 21.3732 63.7315 21.1866C63.7213 21.0989 63.7519 21.066 63.8029 21.0879C63.8744 21.1428 65.007 19.8262 68.4151 15.7448C69.2518 14.7354 69.4559 14.4502 69.1804 14.6257C69.109 14.6696 69.0987 14.6586 69.1396 14.5709C69.1804 14.505 69.2518 14.4721 69.2926 14.505C69.3436 14.527 69.8538 14.0113 70.4252 13.353C71.4967 12.1023 71.7722 11.9377 72.0681 12.3327C72.1905 12.4753 72.2211 15.5802 72.2619 31.2255C72.3028 46.0259 72.3436 49.9976 72.4456 50.1841C72.517 50.3158 72.7415 50.5681 72.9456 50.7327L73.3129 51.0399L75.619 51.0728C77.8537 51.1057 77.9353 51.0947 78.3843 50.8534C78.7108 50.6778 78.9149 50.4584 79.0985 50.1073L79.3536 49.6136V26.5187C79.3536 4.52105 79.3434 3.40197 79.17 3.06185C79.0679 2.86436 78.9455 2.73271 78.8945 2.76562C78.8434 2.79854 78.772 2.76562 78.7312 2.69979C78.6904 2.61202 78.7006 2.60105 78.772 2.64494C79.0577 2.83145 78.8638 2.48037 78.5373 2.20608C77.8639 1.65751 77.6496 1.6246 74.3435 1.61362H71.2722L70.6599 1.94277C70.1395 2.22802 69.813 2.5462 68.5477 4.0822C67.16 5.76082 66.8845 6.13385 67.1804 5.93636C67.2519 5.88151 67.2621 5.90345 67.2212 5.99122C67.1702 6.06802 67.109 6.10094 67.0784 6.05705C67.007 5.99122 66.2417 6.77019 66.2417 6.91282C66.2417 6.95671 66.2927 6.96768 66.3641 6.92379C66.4355 6.87991 66.4457 6.89088 66.4049 6.97865C66.3641 7.04448 66.2927 7.07739 66.2519 7.04448C66.16 6.98962 65.7825 7.42848 63.0479 10.7967C61.354 12.8703 60.9867 13.375 61.4254 13.0129C61.5785 12.8703 61.5887 12.8813 61.4561 13.0568C61.3744 13.1556 61.2928 13.2214 61.2622 13.1885C61.1908 13.1226 60.5275 13.7919 60.5275 13.9345C60.5275 13.9784 60.5785 13.9894 60.65 13.9455C60.7214 13.9016 60.7316 13.9126 60.6908 14.0004C60.65 14.0662 60.5785 14.0991 60.5275 14.0662C60.4561 14.0223 54.844 20.7697 53.8134 22.1411C53.2317 22.9201 52.8134 22.8323 51.9563 21.7681C50.5073 19.9798 49.9869 19.3983 49.8849 19.4641C49.8237 19.497 49.8135 19.4751 49.8543 19.4093C49.9359 19.2557 46.4768 14.9658 46.3441 15.0536C46.2931 15.0865 46.2217 15.0536 46.1809 14.9878C46.1401 14.9 46.1503 14.889 46.2217 14.9329C46.487 15.1085 46.3135 14.8232 45.6707 14.0552C45.2931 13.6054 44.9564 13.2653 44.9156 13.2982C44.8646 13.3311 44.7932 13.2982 44.7523 13.2324C44.7115 13.1446 44.7217 13.1336 44.7932 13.1775C44.8646 13.2214 44.9156 13.2104 44.9156 13.1665C44.9156 13.0239 44.2524 12.3546 44.1911 12.4205C44.1605 12.4534 44.0279 12.3437 43.885 12.1791C43.6605 11.9048 43.6605 11.8938 43.8748 12.0804C44.4054 12.5741 43.9768 11.9926 41.9463 9.51305C40.6912 7.96608 39.7525 6.90185 39.6912 6.94574C39.6198 6.98962 39.6096 6.96768 39.6504 6.89088C39.7422 6.73728 38.0994 4.77339 37.9464 4.87214C37.8851 4.90505 37.8749 4.88311 37.9158 4.80631C37.9974 4.67465 35.9974 2.27191 35.8138 2.27191C35.7627 2.27191 35.7525 2.32677 35.7934 2.40357C35.8342 2.48037 35.824 2.49134 35.7423 2.44745C35.6811 2.40357 35.6505 2.32677 35.6811 2.27191C35.7117 2.21705 35.5383 2.05248 35.3036 1.92083C34.875 1.67945 34.7832 1.66848 31.6506 1.64654C29.8853 1.63557 28.3139 1.66848 28.1711 1.71237ZM26.7221 4.15899C26.6915 4.24677 26.6609 4.21385 26.6609 4.09317C26.6507 3.97248 26.6813 3.90665 26.7119 3.95054C26.7425 3.98345 26.7527 4.0822 26.7221 4.15899ZM26.7221 5.03671C26.6915 5.11351 26.6711 5.05865 26.6711 4.90505C26.6711 4.75145 26.6915 4.69659 26.7221 4.76242C26.7425 4.83922 26.7425 4.97088 26.7221 5.03671ZM38.5994 5.64014C38.7321 5.81568 38.7219 5.82665 38.5688 5.68402C38.4668 5.60722 38.3851 5.51945 38.3851 5.49751C38.3851 5.40974 38.4668 5.46459 38.5994 5.64014ZM26.7221 6.90185C26.7017 7.09933 26.6813 6.96768 26.6813 6.60562C26.6813 6.24356 26.7017 6.07899 26.7221 6.24356C26.7425 6.40813 26.7425 6.70436 26.7221 6.90185ZM26.7221 9.31556C26.7017 9.45819 26.6813 9.37042 26.6813 9.12905C26.6711 8.88768 26.6915 8.77796 26.7221 8.87671C26.7425 8.98642 26.7425 9.1839 26.7221 9.31556ZM26.7221 10.1933C26.7017 10.3359 26.6813 10.2481 26.6813 10.0068C26.6711 9.76539 26.6915 9.65567 26.7221 9.75442C26.7425 9.86413 26.7425 10.0616 26.7221 10.1933ZM26.7221 11.071C26.6915 11.1478 26.6711 11.0929 26.6711 10.9393C26.6711 10.7857 26.6915 10.7309 26.7221 10.7967C26.7425 10.8735 26.7425 11.0052 26.7221 11.071ZM26.7221 12.4973C26.7017 12.7606 26.6813 12.5741 26.6813 12.0913C26.6813 11.6086 26.7017 11.4001 26.7221 11.6196C26.7425 11.85 26.7425 12.2449 26.7221 12.4973ZM62.4662 11.8609C62.4662 11.8829 62.3846 11.9706 62.2928 12.0474C62.1295 12.1901 62.1193 12.1791 62.252 12.0036C62.3846 11.828 62.4662 11.7732 62.4662 11.8609ZM26.7221 14.2527C26.7017 14.516 26.6813 14.3295 26.6813 13.8468C26.6813 13.364 26.7017 13.1556 26.7221 13.375C26.7425 13.6054 26.7425 14.0004 26.7221 14.2527ZM70.1191 13.4957C70.1191 13.5176 70.0171 13.6273 69.8946 13.748L69.66 13.9565L69.8538 13.7041C70.0375 13.4737 70.1191 13.4079 70.1191 13.4957ZM45.436 13.9784C45.5687 14.154 45.5584 14.1649 45.4054 14.0223C45.3034 13.9455 45.2217 13.8577 45.2217 13.8358C45.2217 13.748 45.3034 13.8029 45.436 13.9784ZM26.7221 15.9533C26.7017 16.1837 26.6813 15.9972 26.6813 15.5473C26.6813 15.0975 26.7017 14.911 26.7221 15.1304C26.7425 15.3608 26.7425 15.7338 26.7221 15.9533ZM72.4354 17.215C72.4048 17.3028 72.3742 17.2698 72.3742 17.1492C72.364 17.0285 72.3946 16.9626 72.4252 17.0065C72.4558 17.0394 72.466 17.1382 72.4354 17.215ZM26.7221 17.983C26.6915 18.0598 26.6711 18.0049 26.6711 17.8513C26.6711 17.6977 26.6915 17.6429 26.7221 17.7087C26.7425 17.7855 26.7425 17.9172 26.7221 17.983ZM72.4354 18.2573C72.4048 18.367 72.3844 18.3012 72.3844 18.1256C72.3844 17.9391 72.4048 17.8623 72.4354 17.9281C72.4558 18.0049 72.4558 18.1585 72.4354 18.2573ZM72.4354 18.751C72.4048 18.8388 72.3742 18.8058 72.3742 18.6852C72.364 18.5645 72.3946 18.4986 72.4252 18.5425C72.4558 18.5754 72.466 18.6742 72.4354 18.751ZM40.4361 18.8058C40.5688 18.9814 40.5586 18.9924 40.4055 18.8497C40.3035 18.7729 40.2218 18.6852 40.2218 18.6632C40.2218 18.5754 40.3035 18.6303 40.4361 18.8058ZM26.7221 19.8481C26.7017 19.9908 26.6813 19.881 26.6813 19.6068C26.6813 19.3325 26.7017 19.2228 26.7221 19.3544C26.7425 19.497 26.7425 19.7165 26.7221 19.8481ZM72.4354 21.055C72.415 21.439 72.4048 21.1537 72.4048 20.4296C72.4048 19.7055 72.415 19.3983 72.4354 19.7384C72.4558 20.0895 72.4558 20.682 72.4354 21.055ZM26.7221 21.6035C26.7017 21.7462 26.6813 21.6365 26.6813 21.3622C26.6813 21.0879 26.7017 20.9782 26.7221 21.1098C26.7425 21.2525 26.7425 21.4719 26.7221 21.6035ZM72.4354 24.4561C72.4252 24.9608 72.4048 24.5549 72.4048 23.5565C72.4048 22.5581 72.4252 22.1521 72.4354 22.6458C72.4558 23.1505 72.4558 23.9624 72.4354 24.4561ZM62.8744 22.1741C62.8744 22.196 62.7928 22.2838 62.7009 22.3606C62.5377 22.5032 62.5275 22.4922 62.6601 22.3167C62.7928 22.1411 62.8744 22.0863 62.8744 22.1741ZM26.7221 23.359C26.7017 23.5016 26.6813 23.3919 26.6813 23.1176C26.6813 22.8433 26.7017 22.7336 26.7221 22.8653C26.7425 23.0079 26.7425 23.2273 26.7221 23.359ZM43.8442 22.8982C43.9462 23.0189 44.0075 23.1176 43.9768 23.1176C43.9462 23.1176 43.8442 23.0189 43.7422 22.8982C43.6401 22.7775 43.5789 22.6787 43.6095 22.6787C43.6401 22.6787 43.7422 22.7775 43.8442 22.8982ZM26.7221 24.3464C26.6915 24.4342 26.6609 24.4013 26.6609 24.2806C26.6507 24.1599 26.6813 24.0941 26.7119 24.1379C26.7425 24.1709 26.7527 24.2696 26.7221 24.3464ZM72.4354 26.047C72.4048 26.1567 72.3844 26.0689 72.3844 25.8605C72.3844 25.652 72.4048 25.5642 72.4354 25.663C72.4558 25.7727 72.4558 25.9482 72.4354 26.047ZM72.4354 31.0938C72.4252 31.9935 72.4048 31.2584 72.4048 29.481C72.4048 27.7037 72.4252 26.9686 72.4354 27.8573C72.4558 28.7569 72.4558 30.2051 72.4354 31.0938ZM26.7221 27.4184C26.6915 27.5062 26.6609 27.4733 26.6609 27.3526C26.6507 27.2319 26.6813 27.1661 26.7119 27.2099C26.7425 27.2429 26.7527 27.3416 26.7221 27.4184ZM48.089 28.0218C48.2217 28.1974 48.2114 28.2083 48.0584 28.0657C47.9564 27.9889 47.8747 27.9011 47.8747 27.8792C47.8747 27.7914 47.9564 27.8463 48.089 28.0218ZM26.7221 28.4058C26.6915 28.4936 26.6609 28.4607 26.6609 28.34C26.6507 28.2193 26.6813 28.1535 26.7119 28.1974C26.7425 28.2303 26.7527 28.329 26.7221 28.4058ZM49.9257 30.2161C50.0583 30.3917 50.0481 30.4026 49.8951 30.26C49.793 30.1832 49.7114 30.0954 49.7114 30.0735C49.7114 29.9857 49.793 30.0406 49.9257 30.2161ZM55.6297 30.8305C55.6297 30.8525 55.5276 30.9622 55.4052 31.0829L55.1705 31.2913L55.3644 31.039C55.548 30.8086 55.6297 30.7427 55.6297 30.8305ZM72.4354 44.6984C72.4252 46.9146 72.415 45.1263 72.415 40.7267C72.415 36.3162 72.4252 34.5059 72.4354 36.6893C72.4558 38.8726 72.4558 42.4712 72.4354 44.6984ZM26.7221 35.3178C26.6915 35.3946 26.6711 35.3398 26.6711 35.1862C26.6711 35.0326 26.6915 34.9777 26.7221 35.0435C26.7425 35.1203 26.7425 35.252 26.7221 35.3178ZM26.7221 36.5247C26.7017 36.6673 26.6813 36.5795 26.6813 36.3382C26.6711 36.0968 26.6915 35.9871 26.7221 36.0858C26.7425 36.1955 26.7425 36.393 26.7221 36.5247ZM26.7221 38.3898C26.6915 38.4776 26.6609 38.4447 26.6609 38.324C26.6507 38.2033 26.6813 38.1375 26.7119 38.1814C26.7425 38.2143 26.7527 38.313 26.7221 38.3898ZM26.7221 43.2172C26.6915 43.305 26.6609 43.2721 26.6609 43.1514C26.6507 43.0307 26.6813 42.9649 26.7119 43.0088C26.7425 43.0417 26.7527 43.1404 26.7221 43.2172ZM26.7221 44.095C26.6915 44.1718 26.6711 44.1169 26.6711 43.9633C26.6711 43.8097 26.6915 43.7548 26.7221 43.8207C26.7425 43.8975 26.7425 44.0291 26.7221 44.095ZM26.7221 45.3018C26.7017 45.4444 26.6813 45.3567 26.6813 45.1153C26.6711 44.8739 26.6915 44.7642 26.7221 44.863C26.7425 44.9727 26.7425 45.1702 26.7221 45.3018ZM26.7221 46.1795C26.7017 46.3222 26.6813 46.2344 26.6813 45.993C26.6711 45.7516 26.6915 45.6419 26.7221 45.7407C26.7425 45.8504 26.7425 46.0479 26.7221 46.1795ZM26.7221 47.7155C26.7017 47.9788 26.6813 47.7923 26.6813 47.3096C26.6813 46.8268 26.7017 46.6184 26.7221 46.8378C26.7425 47.0682 26.7425 47.4632 26.7221 47.7155ZM26.7221 48.4835C26.6915 48.5713 26.6609 48.5384 26.6609 48.4177C26.6507 48.297 26.6813 48.2312 26.7119 48.2751C26.7425 48.308 26.7527 48.4067 26.7221 48.4835ZM26.7221 49.3612C26.6915 49.438 26.6711 49.3832 26.6711 49.2296C26.6711 49.076 26.6915 49.0211 26.7221 49.087C26.7425 49.1638 26.7425 49.2954 26.7221 49.3612ZM72.4354 49.3612C72.4048 49.438 72.3844 49.3832 72.3844 49.2296C72.3844 49.076 72.4048 49.0211 72.4354 49.087C72.4558 49.1638 72.4558 49.2954 72.4354 49.3612ZM33.2832 50.3706C33.2832 50.3926 33.2016 50.4803 33.1097 50.5571C32.9465 50.6998 32.9363 50.6888 33.0689 50.5132C33.2016 50.3377 33.2832 50.2828 33.2832 50.3706ZM29.8445 50.9521C29.7731 50.974 29.6302 50.974 29.5384 50.9521C29.4364 50.9192 29.4976 50.8972 29.6608 50.8972C29.8343 50.8972 29.9057 50.9192 29.8445 50.9521ZM31.3751 50.9521C31.3037 50.974 31.1812 50.974 31.12 50.9521C31.0486 50.9192 31.0996 50.8972 31.2424 50.8972C31.3853 50.8972 31.4363 50.9192 31.3751 50.9521ZM75.6088 50.9521C75.5068 50.974 75.3435 50.974 75.2517 50.9521C75.1496 50.9192 75.2313 50.8972 75.4251 50.8972C75.619 50.8972 75.7006 50.9192 75.6088 50.9521Z" fill="#3591CD"/>
<path d="M38.4872 26.8479C38.3749 26.9686 38.2627 27.177 38.2321 27.3087C38.2015 27.4513 38.1913 32.5969 38.2015 38.7629L38.2321 49.9647L38.5076 50.3487C38.9872 51.0179 39.2627 51.0947 41.283 51.0947C42.6402 51.0947 43.1708 51.0508 43.4463 50.9302C43.6503 50.8424 43.783 50.7217 43.7524 50.6668C43.7116 50.612 43.7422 50.5242 43.8034 50.4803C43.885 50.4364 43.8952 50.4474 43.8544 50.5242C43.8136 50.601 43.8238 50.6559 43.885 50.6559C43.936 50.6559 44.0789 50.4474 44.1911 50.1841C44.3952 49.7233 44.4054 49.5478 44.4054 45.5761C44.4054 43.1624 44.4462 41.3411 44.5075 41.1766C44.7421 40.5073 45.2319 40.9242 47.6196 43.7439C48.7931 45.1263 49.6502 46.0369 49.7318 45.982C49.7726 45.9491 49.7829 45.993 49.7624 46.0698C49.7114 46.2015 50.7522 47.4193 50.9155 47.4193C50.9563 47.4193 50.9767 47.4522 50.9665 47.4961C50.9461 47.551 51.293 47.9788 51.7318 48.4616C52.4971 49.3174 52.5277 49.3393 53.0073 49.3393C53.2828 49.3393 53.5889 49.2844 53.6909 49.2296C53.8032 49.1638 55.1399 47.6716 56.6603 45.9052C61.3642 40.4744 61.0377 40.8145 61.3846 40.9571C61.5275 41.012 61.5479 41.4947 61.5479 45.2689C61.5479 47.9569 61.5887 49.6575 61.6601 49.9318C61.803 50.5023 62.1907 50.9082 62.4969 50.8204C62.6499 50.7766 62.6805 50.7875 62.5887 50.8534C62.3438 51.0289 62.8438 51.0947 64.6907 51.0947C66.0172 51.0947 66.5376 51.0508 66.8131 50.9302C67.0172 50.8424 67.1498 50.7217 67.109 50.6559C67.0682 50.59 67.1192 50.5791 67.2212 50.623C67.3641 50.6778 67.3845 50.6559 67.3335 50.5023C67.2927 50.3926 67.3029 50.3377 67.3641 50.3816C67.4253 50.4255 67.5376 50.2719 67.6192 50.0634C67.7518 49.7233 67.7723 48.1873 67.7518 38.3569L67.7212 27.0454L67.4763 26.8369C67.3437 26.7272 67.0988 26.6285 66.9355 26.6285C66.6294 26.6285 65.9356 27.1112 65.9356 27.3197C65.9356 27.3745 66.0376 27.3416 66.1702 27.2209L66.3947 27.0125L66.2009 27.2648C66.0886 27.3965 65.9764 27.4842 65.9458 27.4513C65.8845 27.3855 64.6091 28.713 64.6091 28.8557C64.6091 28.8995 64.6703 28.9105 64.7417 28.8666C64.8131 28.8227 64.8335 28.8337 64.7825 28.8886C64.7315 28.9434 64.6397 28.9873 64.5784 28.9873C64.507 28.9873 64.456 29.0531 64.456 29.119C64.456 29.1958 64.4152 29.2616 64.3744 29.2506C64.2621 29.2397 63.6907 29.8211 63.6907 29.9418C63.6907 29.9967 63.7519 30.0077 63.8234 29.9638C63.905 29.9089 63.8948 29.9418 63.803 30.0625C63.7213 30.1722 63.6397 30.2271 63.6091 30.1942C63.5377 30.1283 62.6703 31.017 62.6703 31.1597C62.6703 31.2035 62.7315 31.2145 62.803 31.1706C62.8846 31.1158 62.8846 31.1377 62.7826 31.2694C62.7111 31.3681 62.6091 31.4339 62.5683 31.401C62.5173 31.3681 61.6703 32.3226 60.6602 33.5075C59.6602 34.7034 58.4153 36.1846 57.8949 36.799C57.3337 37.4682 56.9766 37.9839 57.0174 38.0607C57.0582 38.1265 57.048 38.1485 56.9868 38.1155C56.9256 38.0717 56.3439 38.6531 55.6909 39.3992C54.5991 40.6499 54.3134 41.0339 54.6297 40.8255C54.7011 40.7706 54.7113 40.7926 54.6705 40.8803C54.6195 40.9571 54.5583 40.99 54.5276 40.9571C54.497 40.9242 54.2011 41.1656 53.8746 41.5057C53.3542 42.0433 53.242 42.1091 52.9971 42.0433C52.844 41.9884 52.6399 41.9555 52.5481 41.9446C52.4563 41.9446 52.395 41.9116 52.4154 41.8678C52.4767 41.78 52.1093 41.4179 52.0379 41.4947C52.0175 41.5276 51.8542 41.385 51.691 41.1875L51.3951 40.8364L51.7318 41.1546C51.9053 41.3411 52.0583 41.4399 52.0583 41.396C52.0583 41.2314 49.4869 38.3679 49.4053 38.4227C49.3543 38.4557 49.2829 38.4227 49.242 38.3569C49.2012 38.2691 49.2114 38.2582 49.2829 38.3021C49.5788 38.4995 49.3237 38.1485 48.3747 37.0403C47.8033 36.3821 47.3033 35.8664 47.2625 35.8993C47.2217 35.9213 47.0788 35.8115 46.9462 35.647C46.7217 35.3727 46.7217 35.3727 46.936 35.5592C47.5074 36.0858 47.0278 35.4495 45.5176 33.6941C44.5891 32.6079 43.834 31.8179 43.7728 31.8509C43.7014 31.8947 43.6911 31.8728 43.732 31.796C43.834 31.6314 41.9769 29.4591 41.8238 29.5578C41.7626 29.5907 41.7524 29.5688 41.7932 29.503C41.8749 29.3494 40.6402 27.9231 40.4973 28.0218C40.4361 28.0547 40.4259 28.0328 40.4667 27.967C40.5075 27.8902 40.3137 27.5939 39.9769 27.2319C39.5076 26.7272 39.3647 26.6285 39.0586 26.6285C38.8239 26.6285 38.6198 26.7053 38.4872 26.8479ZM38.6913 26.8918C38.6913 26.9137 38.6096 27.0015 38.5178 27.0783C38.3545 27.2209 38.3443 27.2099 38.477 27.0344C38.6096 26.8589 38.6913 26.804 38.6913 26.8918ZM67.4661 27.0125C67.66 27.2538 67.5478 27.2867 67.3437 27.0454C67.2417 26.9357 67.2008 26.8479 67.2519 26.8479C67.3029 26.8479 67.3947 26.9247 67.4661 27.0125ZM39.7627 27.177C39.8647 27.2977 39.9259 27.3965 39.8953 27.3965C39.8647 27.3965 39.7627 27.2977 39.6606 27.177C39.5586 27.0563 39.4974 26.9576 39.528 26.9576C39.5586 26.9576 39.6606 27.0563 39.7627 27.177ZM41.4565 29.119C41.5892 29.2945 41.579 29.3055 41.4259 29.1629C41.3239 29.0861 41.2422 28.9983 41.2422 28.9763C41.2422 28.8886 41.3239 28.9434 41.4565 29.119ZM62.2622 31.9277C62.2622 31.9496 62.1601 32.0593 62.0377 32.18L61.803 32.3885L61.9969 32.1361C62.1805 31.9057 62.2622 31.8399 62.2622 31.9277ZM38.3545 36.3601C38.3239 36.4698 38.3035 36.3821 38.3035 36.1736C38.3035 35.9651 38.3239 35.8774 38.3545 35.9761C38.3749 36.0858 38.3749 36.2614 38.3545 36.3601ZM50.4359 39.6515C50.5685 39.8271 50.5583 39.838 50.4053 39.6954C50.3032 39.6186 50.2216 39.5309 50.2216 39.5089C50.2216 39.4211 50.3032 39.476 50.4359 39.6515ZM38.3545 40.0904C38.3239 40.2001 38.3035 40.1343 38.3035 39.9587C38.3035 39.7722 38.3239 39.6954 38.3545 39.7613C38.3749 39.838 38.3749 39.9916 38.3545 40.0904ZM61.7214 41.6812C61.6908 41.758 61.6703 41.7032 61.6703 41.5496C61.6703 41.396 61.6908 41.3411 61.7214 41.407C61.7418 41.4838 61.7418 41.6154 61.7214 41.6812ZM44.2728 42.7784C44.2524 42.9759 44.232 42.8223 44.232 42.4273C44.232 42.0323 44.2524 41.8787 44.2728 42.0652C44.2932 42.2627 44.2932 42.5919 44.2728 42.7784ZM38.3545 43.4367C38.3239 43.5244 38.2933 43.4915 38.2933 43.3708C38.2831 43.2502 38.3137 43.1843 38.3443 43.2282C38.3749 43.2611 38.3851 43.3599 38.3545 43.4367ZM58.7929 43.2392C58.7929 43.2611 58.7112 43.3489 58.6194 43.4257C58.4561 43.5683 58.4459 43.5574 58.5786 43.3818C58.7112 43.2063 58.7929 43.1514 58.7929 43.2392ZM44.2728 44.4241C44.2524 44.6216 44.232 44.468 44.232 44.073C44.232 43.678 44.2524 43.5244 44.2728 43.711C44.2932 43.9084 44.2932 44.2376 44.2728 44.4241ZM44.2728 46.1247C44.2524 46.3551 44.232 46.1686 44.232 45.7187C44.232 45.2689 44.2524 45.0824 44.2728 45.3018C44.2932 45.5322 44.2932 45.9052 44.2728 46.1247ZM61.7214 46.7281C61.6908 46.8049 61.6703 46.75 61.6703 46.5964C61.6703 46.4428 61.6908 46.388 61.7214 46.4538C61.7418 46.5306 61.7418 46.6623 61.7214 46.7281ZM44.2728 47.2767C44.2524 47.4193 44.232 47.3315 44.232 47.0902C44.2217 46.8488 44.2422 46.7391 44.2728 46.8378C44.2932 46.9475 44.2932 47.145 44.2728 47.2767ZM44.2728 47.9898C44.2422 48.0995 44.2217 48.0337 44.2217 47.8582C44.2217 47.6716 44.2422 47.5948 44.2728 47.6607C44.2932 47.7375 44.2932 47.8911 44.2728 47.9898ZM44.2728 49.3064C44.2422 49.4161 44.2217 49.3283 44.2217 49.1199C44.2217 48.9114 44.2422 48.8236 44.2728 48.9224C44.2932 49.0321 44.2932 49.2076 44.2728 49.3064ZM41.2728 50.9521C41.2014 50.974 41.0586 50.974 40.9667 50.9521C40.8647 50.9192 40.9259 50.8972 41.0892 50.8972C41.2626 50.8972 41.3341 50.9192 41.2728 50.9521ZM64.2825 50.9521C64.1805 50.974 63.9968 50.974 63.8744 50.9521C63.7417 50.9302 63.8234 50.9082 64.0478 50.9082C64.2723 50.8972 64.3744 50.9192 64.2825 50.9521Z" fill="#3591CD"/>
<path d="M12.9775 64.4798V70.8433H14.151H15.3244L15.304 66.2901C15.2836 63.7886 15.2938 61.737 15.3244 61.737C15.355 61.737 15.4571 61.9345 15.5489 62.1758C15.6407 62.4172 16.3244 63.8435 17.0591 65.3576L18.3958 68.1004H19.1611H19.9162L20.161 67.6835C20.61 66.9045 21.0488 65.8952 20.9774 65.7745C20.9365 65.7086 20.9467 65.6867 21.008 65.7196C21.1508 65.8184 21.661 64.7651 21.5896 64.5237C21.5386 64.3592 21.5488 64.3482 21.6304 64.4689C21.712 64.5896 21.8957 64.2933 22.4059 63.2072L23.0691 61.7918V66.3121L23.0793 70.8433H24.2018H25.3242V64.4798V58.1054L24.0895 58.1384L22.8447 58.1713L21.712 60.4204C20.7121 62.3843 19.8345 64.1397 19.406 65.0174L19.2733 65.2917L19.1305 64.9845C19.0488 64.82 18.9366 64.7212 18.8754 64.7651C18.8039 64.809 18.7937 64.798 18.8345 64.7212C18.9366 64.5457 18.2019 63.0316 18.059 63.1194C17.9876 63.1633 17.9774 63.1523 18.0182 63.0755C18.1203 62.9 16.5591 59.7402 16.4264 59.828C16.355 59.8718 16.3448 59.8499 16.3856 59.7841C16.4672 59.6414 15.9673 58.5224 15.8448 58.5992C15.804 58.6321 15.7734 58.5443 15.7734 58.4126C15.7836 58.1713 15.753 58.1713 14.3857 58.1384L12.9775 58.1054V64.4798ZM13.4163 58.3029C13.3449 58.3249 13.2224 58.3249 13.1612 58.3029C13.0898 58.27 13.1408 58.2481 13.2836 58.2481C13.4265 58.2481 13.4775 58.27 13.4163 58.3029ZM15.355 58.3029C15.2224 58.3249 15.0183 58.3249 14.8959 58.3029C14.7632 58.281 14.8652 58.259 15.1203 58.259C15.3754 58.259 15.4775 58.281 15.355 58.3029ZM25.2222 58.4126C25.2222 58.5553 25.1915 58.5662 25.1405 58.4785C25.0895 58.3907 24.6916 58.3358 23.9977 58.3029L22.9263 58.27L24.0793 58.2481C25.1099 58.2261 25.2222 58.2481 25.2222 58.4126ZM16.5897 60.1571C16.6203 60.2449 16.6101 60.2888 16.5489 60.2558C16.4877 60.2229 16.4468 60.1461 16.4468 60.0803C16.4468 59.9267 16.5183 59.9596 16.5897 60.1571ZM21.9671 60.3436C21.8651 60.4424 21.8549 60.4314 21.9161 60.2778C21.9467 60.1681 22.0079 60.1132 22.0386 60.1461C22.0692 60.179 22.0386 60.2668 21.9671 60.3436ZM13.151 62.7464C13.1306 62.889 13.1102 62.8012 13.1102 62.5598C13.1 62.3185 13.1204 62.2088 13.151 62.3075C13.1714 62.4172 13.1714 62.6147 13.151 62.7464ZM23.2528 68.4076C23.2426 69.5377 23.2324 68.5831 23.2324 66.2901C23.2324 63.9971 23.2426 63.0755 23.2528 64.2385C23.2732 65.4014 23.2732 67.2776 23.2528 68.4076ZM13.151 64.5018C13.1204 64.5786 13.1 64.5237 13.1 64.3701C13.1 64.2165 13.1204 64.1617 13.151 64.2275C13.1714 64.3043 13.1714 64.436 13.151 64.5018ZM13.151 66.1475C13.1306 66.4108 13.1102 66.2024 13.1102 65.6867C13.1102 65.171 13.1306 64.9626 13.151 65.2149C13.1714 65.4782 13.1714 65.8952 13.151 66.1475ZM13.151 67.2446C13.1204 67.3324 13.0898 67.2995 13.0898 67.1788C13.0796 67.0581 13.1102 66.9923 13.1408 67.0362C13.1714 67.0691 13.1816 67.1678 13.151 67.2446ZM13.151 67.6835C13.1204 67.7713 13.0898 67.7383 13.0898 67.6177C13.0796 67.497 13.1102 67.4312 13.1408 67.475C13.1714 67.508 13.1816 67.6067 13.151 67.6835ZM13.151 70.3166C13.1204 70.4044 13.0898 70.3715 13.0898 70.2508C13.0796 70.1301 13.1102 70.0643 13.1408 70.1082C13.1714 70.1411 13.1816 70.2398 13.151 70.3166Z" fill="#3591CD"/>
<path d="M52.4664 64.4799V70.8542L53.5889 70.8213C54.2113 70.7994 54.7113 70.7555 54.7113 70.7006C54.7113 70.6568 54.7113 67.8042 54.7113 64.3701V58.1164H53.5889H52.4664V64.4799ZM53.3644 58.3029L52.6807 58.3468L52.6399 58.8076L52.5991 59.2684L52.5889 58.7418L52.5685 58.2261L53.3134 58.2481L54.048 58.27L53.3644 58.3029ZM54.5378 58.3029C54.4664 58.3249 54.3235 58.3249 54.2317 58.3029C54.1297 58.27 54.1909 58.2481 54.3542 58.2481C54.5276 58.2481 54.599 58.27 54.5378 58.3029ZM54.5786 59.2904C54.5582 59.4659 54.5378 59.3233 54.5378 58.9941C54.5378 58.665 54.5582 58.5224 54.5786 58.6869C54.599 58.8625 54.599 59.1258 54.5786 59.2904ZM52.6399 61.2104C52.6195 61.5944 52.6093 61.3091 52.6093 60.585C52.6093 59.8609 52.6195 59.5537 52.6399 59.8938C52.6603 60.2449 52.6603 60.8373 52.6399 61.2104ZM54.5786 62.3624C54.5684 62.8341 54.548 62.4501 54.548 61.5176C54.548 60.585 54.5684 60.201 54.5786 60.6618C54.599 61.1336 54.599 61.9016 54.5786 62.3624ZM52.6399 62.5269C52.6195 62.6696 52.5991 62.5818 52.5991 62.3404C52.5889 62.0991 52.6093 61.9893 52.6399 62.0881C52.6603 62.1978 52.6603 62.3953 52.6399 62.5269ZM52.6399 64.3921C52.6195 64.6554 52.5991 64.4469 52.5991 63.9313C52.5991 63.4156 52.6195 63.2072 52.6399 63.4595C52.6603 63.7228 52.6603 64.1397 52.6399 64.3921ZM54.5786 63.7887C54.548 63.8984 54.5276 63.8106 54.5276 63.6021C54.5276 63.3937 54.548 63.3059 54.5786 63.4047C54.599 63.5144 54.599 63.6899 54.5786 63.7887ZM54.5786 64.5018C54.548 64.5786 54.5276 64.5237 54.5276 64.3701C54.5276 64.2165 54.548 64.1617 54.5786 64.2275C54.599 64.3043 54.599 64.436 54.5786 64.5018ZM54.5786 65.3247C54.548 65.4344 54.5276 65.3466 54.5276 65.1381C54.5276 64.9297 54.548 64.8419 54.5786 64.9407C54.599 65.0504 54.599 65.2259 54.5786 65.3247ZM52.6399 66.0927C52.6093 66.2024 52.5889 66.1365 52.5889 65.961C52.5889 65.7745 52.6093 65.6977 52.6399 65.7635C52.6603 65.8403 52.6603 65.9939 52.6399 66.0927ZM52.6399 66.9155C52.6195 67.0581 52.5991 66.9704 52.5991 66.729C52.5889 66.4876 52.6093 66.3779 52.6399 66.4767C52.6603 66.5864 52.6603 66.7839 52.6399 66.9155ZM54.5786 67.3544C54.548 67.4312 54.5276 67.3763 54.5276 67.2227C54.5276 67.0691 54.548 67.0143 54.5786 67.0801C54.599 67.1569 54.599 67.2885 54.5786 67.3544ZM52.6399 68.3418C52.6195 68.5393 52.5991 68.3857 52.5991 67.9907C52.5991 67.5957 52.6195 67.4421 52.6399 67.6287C52.6603 67.8261 52.6603 68.1553 52.6399 68.3418ZM54.5786 68.0127C54.548 68.1004 54.5174 68.0675 54.5174 67.9468C54.5072 67.8261 54.5378 67.7603 54.5684 67.8042C54.599 67.8371 54.6093 67.9359 54.5786 68.0127ZM52.6399 70.4812C52.6093 70.5909 52.5889 70.5251 52.5889 70.3496C52.5889 70.163 52.6093 70.0862 52.6399 70.1521C52.6603 70.2289 52.6603 70.3825 52.6399 70.4812ZM54.5786 70.5909C54.548 70.7006 54.5276 70.6129 54.5276 70.4044C54.5276 70.196 54.548 70.1082 54.5786 70.2069C54.599 70.3166 54.599 70.4922 54.5786 70.5909Z" fill="#3591CD"/>
<path d="M56.65 64.4798V70.8433H57.7725H58.8949L58.9153 66.3121C58.9459 61.9235 58.9561 61.8028 59.1194 62.2088C59.2214 62.4392 59.3439 62.6037 59.4051 62.5598C59.4663 62.516 59.4765 62.5708 59.4357 62.6805C59.4051 62.7902 59.4153 62.8451 59.4663 62.8122C59.5173 62.7683 59.5684 62.8561 59.5786 62.9768C59.5888 63.1852 61.4663 67.091 61.9254 67.859C62.0581 68.0894 62.1295 68.1114 62.8438 68.0785L63.6193 68.0455L64.2213 66.8387C64.558 66.1694 64.8335 65.5221 64.8437 65.3905C64.8539 65.2588 64.905 65.1601 64.9458 65.171C64.9866 65.182 65.3948 64.425 65.8437 63.4924L66.6498 61.7918V66.323V70.8433H67.7723H68.8947V64.4798V58.1164H67.6702C66.4866 58.1164 66.4458 58.1274 66.2825 58.3907C66.2009 58.5333 66.16 58.7198 66.2009 58.7857C66.2417 58.8625 66.2315 58.8844 66.1702 58.8515C66.1192 58.8186 65.5478 59.828 64.9152 61.1116C64.2723 62.3953 63.6703 63.6021 63.5683 63.7996C63.4662 63.9861 63.2621 64.414 63.1193 64.7212L62.8438 65.2917L62.5479 64.6664C62.3642 64.2714 62.2111 64.0629 62.1397 64.1068C62.0683 64.1507 62.0581 64.1397 62.0989 64.0629C62.1907 63.9093 60.854 61.1884 60.7112 61.2213C60.65 61.2323 60.5785 61.1665 60.5581 61.0787C60.5173 60.9361 60.5275 60.9361 60.6193 61.0787C60.9153 61.5176 60.6602 60.9032 60.0071 59.5866L59.2928 58.1164H57.9663H56.65V64.4798ZM56.9562 58.27C56.9562 58.3029 56.9153 58.3578 56.8541 58.3907C56.8031 58.4236 56.7521 58.4017 56.7521 58.3468C56.7521 58.281 56.8031 58.2261 56.8541 58.2261C56.9153 58.2261 56.9562 58.2481 56.9562 58.27ZM58.4153 58.3029C58.1704 58.3249 57.7827 58.3249 57.548 58.3029C57.3031 58.281 57.497 58.259 57.9765 58.259C58.4561 58.259 58.65 58.281 58.4153 58.3029ZM68.0069 58.3029C67.711 58.3249 67.2212 58.3249 66.9355 58.3029C66.6396 58.281 66.8743 58.27 67.4661 58.27C68.058 58.27 68.2926 58.281 68.0069 58.3029ZM68.7926 58.3358C68.7926 58.3907 68.7722 58.4456 68.7518 58.4456C68.7212 58.4456 68.6702 58.3907 68.6396 58.3358C68.609 58.27 68.6294 58.2261 68.6804 58.2261C68.7416 58.2261 68.7926 58.27 68.7926 58.3358ZM56.8235 64.6773C56.8133 65.7416 56.8031 64.8419 56.8031 62.6696C56.8031 60.4972 56.8133 59.6195 56.8235 60.7276C56.8439 61.8357 56.8439 63.6131 56.8235 64.6773ZM66.8233 62.8012C66.7927 62.9109 66.7723 62.8451 66.7723 62.6696C66.7723 62.483 66.7927 62.4062 66.8233 62.4721C66.8437 62.5489 66.8437 62.7025 66.8233 62.8012ZM66.8233 64.5128C66.8029 64.7651 66.7927 64.5237 66.7927 63.9861C66.7927 63.4376 66.8029 63.2401 66.8233 63.5253C66.8437 63.8106 66.8437 64.2604 66.8233 64.5128ZM66.8233 66.2024C66.8029 66.4328 66.7825 66.2462 66.7825 65.7964C66.7825 65.3466 66.8029 65.1601 66.8233 65.3795C66.8437 65.6099 66.8437 65.9829 66.8233 66.2024ZM56.8235 67.0252C56.7929 67.102 56.7725 67.0472 56.7725 66.8936C56.7725 66.74 56.7929 66.6851 56.8235 66.7509C56.8439 66.8277 56.8439 66.9594 56.8235 67.0252ZM66.8233 67.2995C66.7927 67.4092 66.7723 67.3214 66.7723 67.113C66.7723 66.9045 66.7927 66.8168 66.8233 66.9155C66.8437 67.0252 66.8437 67.2008 66.8233 67.2995ZM56.8235 68.0675C56.7929 68.1772 56.7725 68.0894 56.7725 67.881C56.7725 67.6725 56.7929 67.5848 56.8235 67.6835C56.8439 67.7932 56.8439 67.9688 56.8235 68.0675ZM66.8233 69.5486C66.8029 69.8119 66.7825 69.6254 66.7825 69.1427C66.7825 68.6599 66.8029 68.4515 66.8233 68.6709C66.8437 68.9013 66.8437 69.2963 66.8233 69.5486ZM56.8235 70.2069C56.8031 70.4702 56.7827 70.2618 56.7827 69.7461C56.7827 69.2305 56.8031 69.022 56.8235 69.2743C56.8439 69.5377 56.8439 69.9546 56.8235 70.2069ZM66.8233 70.6458C66.7927 70.7226 66.7723 70.6677 66.7723 70.5141C66.7723 70.3605 66.7927 70.3057 66.8233 70.3715C66.8437 70.4483 66.8437 70.5799 66.8233 70.6458Z" fill="#3591CD"/>
<path d="M37.6709 60.3766V61.5505L36.9566 61.4957L36.2424 61.4408V62.4063V63.3828H36.9464H37.6505L37.6913 66.2573C37.7219 68.7258 37.7525 69.2086 37.9056 69.5816C38.1607 70.185 38.4158 70.4593 39.0076 70.7336C39.6096 71.0079 41.0076 71.0518 41.7524 70.8104C42.2116 70.6678 42.2116 70.6678 42.2422 70.1302C42.2626 69.823 42.2524 69.3732 42.2116 69.1208L42.1504 68.66L41.8035 68.8246C41.0688 69.1537 40.3035 68.9562 40.13 68.3967C40.0688 68.2212 39.9872 67.0143 39.9566 65.7306L39.8953 63.3828H41.0586H42.232L42.2218 62.4173L42.2116 61.4628H41.0892H39.9668L39.9362 60.3327L39.9055 59.2136H38.7933H37.6709V60.3766ZM36.4158 62.911C36.3852 63.0207 36.3648 62.9549 36.3648 62.7793C36.3648 62.5928 36.3852 62.516 36.4158 62.5818C36.4362 62.6586 36.4362 62.8122 36.4158 62.911ZM39.7831 65.599C39.7525 65.6868 39.7219 65.6538 39.7219 65.5332C39.7117 65.4125 39.7423 65.3466 39.7729 65.3905C39.8035 65.4234 39.8137 65.5222 39.7831 65.599ZM37.9464 69.0001C37.9158 69.0879 37.8852 69.055 37.8852 68.9343C37.875 68.8136 37.9056 68.7478 37.9362 68.7917C37.9668 68.8246 37.977 68.9233 37.9464 69.0001Z" fill="#3591CD"/>
<path d="M80.5271 60.3765V61.5395L79.772 61.4847L79.0067 61.4298L78.9761 62.3295C78.9557 62.8122 78.9557 63.2511 78.9761 63.2949C78.9965 63.3498 79.3536 63.3827 79.772 63.3827H80.5271V66.1475C80.5271 67.8481 80.5679 69.0988 80.6393 69.3621C80.7924 69.9327 81.476 70.6677 82.0066 70.8323C82.5372 70.9859 83.8841 70.9859 84.4658 70.8323L84.9147 70.7116V69.7242C84.9147 68.7477 84.9147 68.7368 84.6903 68.8026C83.7515 69.1098 83.0576 68.9562 82.8842 68.4076C82.8127 68.2101 82.7719 67.102 82.7719 65.7306V63.3937L83.8535 63.3608L84.9453 63.3279V62.3953V61.4627L83.8535 61.5066L82.7719 61.5395V60.3765V59.2136H81.6495H80.5271V60.3765ZM84.7821 61.9784C84.7515 62.0552 84.7311 62.0003 84.7311 61.8467C84.7311 61.6931 84.7515 61.6383 84.7821 61.7041C84.8025 61.7809 84.8025 61.9125 84.7821 61.9784ZM82.6393 63.7887C82.6087 63.8984 82.5883 63.8325 82.5883 63.657C82.5883 63.4705 82.6087 63.3937 82.6393 63.4595C82.6597 63.5363 82.6597 63.6899 82.6393 63.7887ZM82.6393 64.6664C82.6087 64.7761 82.5883 64.6883 82.5883 64.4799C82.5883 64.2714 82.6087 64.1836 82.6393 64.2824C82.6597 64.3921 82.6597 64.5676 82.6393 64.6664ZM82.6393 68.1224C82.6087 68.1992 82.5883 68.1443 82.5883 67.9907C82.5883 67.8371 82.6087 67.7823 82.6393 67.8481C82.6597 67.9249 82.6597 68.0565 82.6393 68.1224ZM84.8127 68.9781C84.8127 69.033 84.7311 69.0879 84.6392 69.0879C84.4862 69.0879 84.476 69.0659 84.6086 68.9781C84.8025 68.8465 84.8127 68.8465 84.8127 68.9781ZM84.7821 70.2618C84.7617 70.4922 84.7413 70.3276 84.7413 69.9107C84.7413 69.4828 84.7617 69.3073 84.7821 69.4938C84.8025 69.6913 84.8025 70.0424 84.7821 70.2618ZM82.7005 70.8104C82.6291 70.8323 82.5066 70.8323 82.4454 70.8104C82.374 70.7775 82.425 70.7555 82.5678 70.7555C82.7107 70.7555 82.7617 70.7775 82.7005 70.8104ZM83.925 70.8104C83.8535 70.8323 83.7311 70.8323 83.6699 70.8104C83.5984 70.7775 83.6495 70.7555 83.7923 70.7555C83.9352 70.7555 83.9862 70.7775 83.925 70.8104Z" fill="#3591CD"/>
<path d="M29.7629 61.375C27.8037 62.132 26.7527 63.7887 26.7527 66.1256C26.7527 67.1679 26.9364 68.0017 27.3344 68.7368C27.6405 69.3073 28.1609 69.9656 28.3139 69.9656C28.3752 69.9656 28.2935 69.801 28.1201 69.6035L27.8241 69.2525L28.1507 69.5706C28.3343 69.7462 28.4568 69.9327 28.4262 69.9766C28.365 70.0973 29.1302 70.5581 29.7629 70.7885C30.4363 71.0298 31.8547 71.0298 32.6302 70.7885C34.1199 70.3277 35.1505 69.1208 35.5791 67.3654C36.1607 64.9517 35.1913 62.6038 33.1812 61.5944C32.5996 61.2872 32.4057 61.2543 31.3955 61.2214C30.5078 61.1885 30.1608 61.2214 29.7629 61.375ZM34.722 63.0207C34.8546 63.1962 34.8444 63.2072 34.6913 63.0646C34.5893 62.9878 34.5077 62.9 34.5077 62.8781C34.5077 62.7903 34.5893 62.8451 34.722 63.0207ZM31.6914 63.273C31.9159 63.3279 32.222 63.4705 32.3853 63.6022C32.5485 63.7229 32.7322 63.7997 32.7934 63.7558C32.8649 63.7119 32.8751 63.7229 32.8342 63.8106C32.7934 63.8765 32.8444 64.063 32.9567 64.2385C33.5587 65.1821 33.6097 66.6522 33.0791 67.7713C32.5791 68.8246 31.3751 69.2744 30.3751 68.7697C29.518 68.3418 29.0894 67.5958 29.018 66.3889C28.9262 64.8749 29.518 63.668 30.518 63.3389C31.0894 63.1414 31.1812 63.1414 31.6914 63.273ZM35.4975 65.1601C35.4668 65.2369 35.4464 65.1821 35.4464 65.0285C35.4464 64.8749 35.4668 64.82 35.4975 64.8858C35.5179 64.9626 35.5179 65.0943 35.4975 65.1601ZM35.5995 65.8184C35.5689 65.9062 35.5383 65.8733 35.5383 65.7526C35.5281 65.6319 35.5587 65.5661 35.5893 65.6099C35.6199 65.6429 35.6301 65.7416 35.5995 65.8184ZM26.9262 65.9281C26.8956 66.0159 26.865 65.983 26.865 65.8623C26.8548 65.7416 26.8854 65.6758 26.916 65.7197C26.9466 65.7526 26.9568 65.8513 26.9262 65.9281ZM26.9262 66.9704C26.8956 67.0801 26.8752 67.0143 26.8752 66.8387C26.8752 66.6522 26.8956 66.5754 26.9262 66.6413C26.9466 66.7181 26.9466 66.8717 26.9262 66.9704ZM35.4975 67.2447C35.4668 67.3325 35.4362 67.2995 35.4362 67.1789C35.426 67.0582 35.4566 66.9923 35.4872 67.0362C35.5179 67.0691 35.5281 67.1679 35.4975 67.2447ZM30.1914 70.6897C30.1608 70.7226 30.069 70.7336 29.9976 70.7007C29.9159 70.6678 29.9466 70.6349 30.0588 70.6349C30.171 70.6239 30.2323 70.6568 30.1914 70.6897Z" fill="#3591CD"/>
<path d="M45.6809 61.3969C44.9462 61.6822 44.6911 61.8358 44.7728 61.9784C44.8238 62.0552 44.7932 62.0662 44.7218 62.0113C44.6401 61.9675 44.4462 62.0881 44.1912 62.3515C43.7932 62.7684 43.6401 63.1085 43.9769 62.8232C44.1299 62.6806 44.1401 62.6916 44.0177 62.8561C43.9361 62.9659 43.8238 63.0317 43.7626 63.0207C43.5585 62.9768 43.0585 64.1617 43.1197 64.5348C43.1606 64.7323 43.1504 64.8091 43.0891 64.7213C42.8544 64.3263 42.7932 66.7071 43.0177 67.6068C43.4055 69.1757 44.3646 70.2728 45.783 70.7885C46.3136 70.975 47.589 71.0408 48.1911 70.8982C48.7829 70.7556 49.3033 70.4922 49.2319 70.3716C49.191 70.3057 49.2217 70.2948 49.2931 70.3386C49.589 70.5471 50.9359 69.066 50.9359 68.5393C50.9359 68.4187 50.6706 68.298 50.0278 68.1115C49.1196 67.8591 48.8339 67.8701 48.9359 68.1663C48.9666 68.2541 48.9564 68.3089 48.9155 68.287C48.8747 68.276 48.6706 68.4077 48.4564 68.5832C47.6809 69.2196 46.2319 69.055 45.6911 68.287C45.4258 67.892 45.2217 67.3105 45.2217 66.9375V66.6742H48.1809H51.14V65.7526C51.14 63.5364 50.0992 61.8797 48.3747 61.364C47.6094 61.1227 46.3238 61.1446 45.6809 61.3969ZM50.0278 62.5819C50.1604 62.7574 50.1502 62.7684 49.9971 62.6257C49.8237 62.4831 49.7727 62.3953 49.8543 62.3953C49.8747 62.3953 49.9563 62.4831 50.0278 62.5819ZM47.9666 63.3828C48.3951 63.6132 48.7115 64.0849 48.8747 64.7213L48.9768 65.1382H47.0993C45.6605 65.1382 45.2217 65.1053 45.2217 64.9956C45.2217 64.9297 45.334 64.6116 45.4666 64.3044C45.6911 63.7997 46.0483 63.4047 46.4462 63.2401C46.7931 63.0975 47.589 63.1743 47.9666 63.3828ZM51.0073 65.4344C50.9767 65.5441 50.9563 65.4783 50.9563 65.3028C50.9563 65.1163 50.9767 65.0395 51.0073 65.1053C51.0277 65.1821 51.0277 65.3357 51.0073 65.4344ZM43.0483 66.4219C43.0279 66.6523 43.0075 66.4877 43.0075 66.0708C43.0075 65.6429 43.0279 65.4673 43.0483 65.6539C43.0687 65.8513 43.0687 66.2024 43.0483 66.4219ZM51.0073 66.2573C50.9869 66.3999 50.9665 66.3121 50.9665 66.0708C50.9563 65.8294 50.9767 65.7197 51.0073 65.8184C51.0277 65.9281 51.0277 66.1256 51.0073 66.2573ZM50.2216 69.5706C50.2216 69.5926 50.14 69.6804 50.0482 69.7572C49.8849 69.8998 49.8747 69.8888 50.0074 69.7133C50.14 69.5377 50.2216 69.4829 50.2216 69.5706ZM46.6809 70.8104C46.6095 70.8324 46.4666 70.8324 46.3748 70.8104C46.2727 70.7775 46.334 70.7556 46.4972 70.7556C46.6707 70.7556 46.7421 70.7775 46.6809 70.8104Z" fill="#3591CD"/>
<path d="M73.3129 61.2982C72.3742 61.5286 71.1395 62.516 71.2823 62.911C71.313 62.9987 71.3028 63.0426 71.2619 63.0097C71.1803 62.9549 70.8334 63.6131 70.8334 63.8216C70.8334 63.8984 71.8232 64.2824 72.7415 64.5677C72.8027 64.5896 72.9558 64.3811 73.068 64.0959C73.2313 63.7009 73.3639 63.5473 73.7109 63.3827C74.8435 62.8342 75.8333 63.3937 75.8333 64.5896V65.0285H75.4251C75.2006 65.0285 74.5476 65.1053 73.966 65.193C72.017 65.5002 70.9252 66.345 70.6395 67.7713C70.5069 68.4515 70.6497 69.2963 70.9864 69.8668C71.7925 71.2163 74.1904 71.3809 75.4455 70.185L75.8843 69.7681L75.9863 70.2838L76.0884 70.7884L77.1088 70.8214L78.1291 70.8543L78.0985 67.5848C78.0883 65.7855 78.0271 64.063 77.9659 63.7667C77.8536 63.1194 77.4557 62.3295 77.272 62.3734C77.2006 62.3843 77.17 62.3514 77.2006 62.2966C77.3026 62.121 76.5986 61.6163 75.9251 61.3969C75.2823 61.1775 73.9558 61.1336 73.3129 61.2982ZM77.8434 63.8435C77.8128 63.9313 77.7822 63.8984 77.7822 63.7777C77.772 63.657 77.8026 63.5912 77.8332 63.6351C77.8638 63.668 77.874 63.7667 77.8434 63.8435ZM77.9455 64.6115C77.9149 64.6883 77.8944 64.6335 77.8944 64.4799C77.8944 64.3263 77.9149 64.2714 77.9455 64.3373C77.9659 64.4141 77.9659 64.5457 77.9455 64.6115ZM77.9455 67.7933C77.9353 68.3528 77.9149 67.903 77.9149 66.7839C77.9149 65.6648 77.9353 65.215 77.9455 65.7635C77.9659 66.3231 77.9659 67.2447 77.9455 67.7933ZM74.6394 65.3247C74.568 65.3466 74.4455 65.3466 74.3843 65.3247C74.3129 65.2918 74.3639 65.2698 74.5068 65.2698C74.6496 65.2698 74.7006 65.2918 74.6394 65.3247ZM73.966 65.4234C73.9354 65.4563 73.8435 65.4673 73.7721 65.4344C73.6905 65.4015 73.7211 65.3686 73.8333 65.3686C73.9456 65.3576 74.0068 65.3905 73.966 65.4234ZM71.6497 66.2792C71.6497 66.3011 71.5681 66.3889 71.4762 66.4657C71.313 66.6083 71.3028 66.5974 71.4354 66.4218C71.5681 66.2463 71.6497 66.1914 71.6497 66.2792ZM75.8333 67.1459C75.8333 68.1992 75.1598 68.9562 74.0986 69.0659C73.6803 69.1098 73.5782 69.0769 73.2925 68.8026C72.7925 68.3199 72.8537 67.497 73.415 67.113C73.7415 66.8936 74.5782 66.6961 75.2517 66.6851L75.8333 66.6742V67.1459ZM70.8028 68.8904C70.7722 68.9672 70.7517 68.9123 70.7517 68.7587C70.7517 68.6051 70.7722 68.5503 70.8028 68.6161C70.8232 68.6929 70.8232 68.8246 70.8028 68.8904Z" fill="#3591CD"/>
<path d="M88.4351 61.364C87.8025 61.5834 86.925 62.1978 86.5984 62.6696C86.3229 63.0426 86.2719 63.2291 86.4658 63.0975C86.5372 63.0536 86.5474 63.0645 86.5066 63.1523C86.4658 63.2181 86.3944 63.2511 86.3433 63.2181C86.2107 63.1304 85.8535 63.9313 85.6801 64.7212C85.3944 66.0488 85.5372 67.5848 86.0474 68.6709C86.3535 69.3073 87.0678 70.0972 87.6698 70.4483C89.1698 71.326 91.2514 71.1395 92.5371 70.0095C92.935 69.6584 93.1493 69.2963 92.8534 69.4828C92.7718 69.5267 92.7514 69.5157 92.8024 69.4609C92.8534 69.406 92.935 69.3621 92.9962 69.3621C93.0473 69.3621 93.2105 69.1537 93.3432 68.9123L93.5983 68.4625L92.7105 68.1663C91.8432 67.87 91.4657 67.8591 91.6085 68.1224C91.6493 68.1992 91.6493 68.2321 91.5983 68.1882C91.5575 68.1443 91.3432 68.276 91.1289 68.4844C90.7004 68.9013 90.2514 69.033 89.5065 68.9562C88.6698 68.8684 88.0372 68.1443 87.8229 67.0252L87.7515 66.6741H90.7718H93.7921V65.8732C93.7921 65.4344 93.7207 64.7871 93.6391 64.4469C93.4554 63.6789 93.1085 62.9109 92.9758 62.9987C92.9248 63.0316 92.8534 62.9987 92.8126 62.9329C92.7718 62.8451 92.782 62.8341 92.8534 62.878C92.9248 62.9219 92.9758 62.9109 92.9758 62.8561C92.9758 62.6476 92.0269 61.8138 91.4657 61.5395C90.731 61.1775 89.2412 61.0897 88.4351 61.364ZM90.5983 63.3717C91.0677 63.6021 91.5473 64.3482 91.5473 64.8419V65.1381H89.7106C88.7004 65.1381 87.8739 65.0943 87.8739 65.0394C87.8739 64.82 88.129 64.1727 88.3433 63.8655C88.8127 63.1743 89.7616 62.9658 90.5983 63.3717ZM93.6595 66.1475C93.6391 66.345 93.6187 66.2133 93.6187 65.8513C93.6187 65.4892 93.6391 65.3247 93.6595 65.4892C93.6799 65.6538 93.6799 65.95 93.6595 66.1475ZM85.7005 66.1475C85.6699 66.2243 85.6495 66.1695 85.6495 66.0159C85.6495 65.8623 85.6699 65.8074 85.7005 65.8732C85.7209 65.95 85.7209 66.0817 85.7005 66.1475Z" fill="#3591CD"/>
</svg>
